<svg width="150" height="150" viewBox="0 0 150 150" fill="none" xmlns="http://www.w3.org/2000/svg">
<path fill-rule="evenodd" clip-rule="evenodd" d="M125 6.25C135.356 6.25 143.75 14.6447 143.75 25V125C143.75 135.356 135.356 143.75 125 143.75H25C14.6447 143.75 6.25 135.356 6.25 125V25C6.25 14.6447 14.6447 6.25 25 6.25H125ZM125 18.75C128.452 18.75 131.25 21.5482 131.25 25V125C131.25 128.452 128.452 131.25 125 131.25H93.75V87.4994H106.726C109.416 87.4994 111.804 85.7781 112.656 83.2256L115.424 74.9194C116.436 71.8837 114.177 68.7494 110.977 68.7494H93.75V56.2495C93.75 53.1245 96.875 49.9995 100 49.9995H112.5C115.952 49.9995 118.75 47.2012 118.75 43.7495V39.4621C118.75 37.4432 117.461 35.6331 115.508 35.1179C107.316 32.9559 100 32.9559 100 32.9559C84.375 32.9559 75 43.7495 75 53.1245V68.7494H62.5C59.0482 68.7494 56.25 71.5475 56.25 74.9994V81.2494C56.25 84.7012 59.0482 87.4994 62.5 87.4994H75V131.25H25C21.5482 131.25 18.75 128.452 18.75 125V25C18.75 21.5482 21.5482 18.75 25 18.75H125Z" fill="black"/>
</svg>
