<svg width="193" height="47" viewBox="0 0 193 47" fill="none" xmlns="http://www.w3.org/2000/svg">
<path d="M175.906 0.976562V37H169.156V0.976562H175.906ZM191.891 11.6406L180.875 24.2031L174.969 30.1797L172.508 25.3047L177.195 19.3516L183.781 11.6406H191.891ZM184.883 37L177.383 25.2812L182.047 21.2031L192.664 37H184.883Z" fill="black"/>
<path d="M154.906 37.4688C152.938 37.4688 151.172 37.1562 149.609 36.5312C148.047 35.8906 146.719 35.0078 145.625 33.8828C144.547 32.7578 143.719 31.4531 143.141 29.9688C142.562 28.4688 142.273 26.875 142.273 25.1875V24.25C142.273 22.3281 142.547 20.5703 143.094 18.9766C143.641 17.3828 144.422 16 145.438 14.8281C146.469 13.6562 147.719 12.7578 149.188 12.1328C150.656 11.4922 152.312 11.1719 154.156 11.1719C155.953 11.1719 157.547 11.4688 158.938 12.0625C160.328 12.6562 161.492 13.5 162.43 14.5938C163.383 15.6875 164.102 17 164.586 18.5312C165.07 20.0469 165.312 21.7344 165.312 23.5938V26.4062H145.156V21.9062H158.68V21.3906C158.68 20.4531 158.508 19.6172 158.164 18.8828C157.836 18.1328 157.336 17.5391 156.664 17.1016C155.992 16.6641 155.133 16.4453 154.086 16.4453C153.195 16.4453 152.43 16.6406 151.789 17.0312C151.148 17.4219 150.625 17.9688 150.219 18.6719C149.828 19.375 149.531 20.2031 149.328 21.1562C149.141 22.0938 149.047 23.125 149.047 24.25V25.1875C149.047 26.2031 149.188 27.1406 149.469 28C149.766 28.8594 150.18 29.6016 150.711 30.2266C151.258 30.8516 151.914 31.3359 152.68 31.6797C153.461 32.0234 154.344 32.1953 155.328 32.1953C156.547 32.1953 157.68 31.9609 158.727 31.4922C159.789 31.0078 160.703 30.2812 161.469 29.3125L164.75 32.875C164.219 33.6406 163.492 34.375 162.57 35.0781C161.664 35.7812 160.57 36.3594 159.289 36.8125C158.008 37.25 156.547 37.4688 154.906 37.4688Z" fill="black"/>
<path d="M128.984 37.4688C127.016 37.4688 125.25 37.1562 123.688 36.5312C122.125 35.8906 120.797 35.0078 119.703 33.8828C118.625 32.7578 117.797 31.4531 117.219 29.9688C116.641 28.4688 116.352 26.875 116.352 25.1875V24.25C116.352 22.3281 116.625 20.5703 117.172 18.9766C117.719 17.3828 118.5 16 119.516 14.8281C120.547 13.6562 121.797 12.7578 123.266 12.1328C124.734 11.4922 126.391 11.1719 128.234 11.1719C130.031 11.1719 131.625 11.4688 133.016 12.0625C134.406 12.6562 135.57 13.5 136.508 14.5938C137.461 15.6875 138.18 17 138.664 18.5312C139.148 20.0469 139.391 21.7344 139.391 23.5938V26.4062H119.234V21.9062H132.758V21.3906C132.758 20.4531 132.586 19.6172 132.242 18.8828C131.914 18.1328 131.414 17.5391 130.742 17.1016C130.07 16.6641 129.211 16.4453 128.164 16.4453C127.273 16.4453 126.508 16.6406 125.867 17.0312C125.227 17.4219 124.703 17.9688 124.297 18.6719C123.906 19.375 123.609 20.2031 123.406 21.1562C123.219 22.0938 123.125 23.125 123.125 24.25V25.1875C123.125 26.2031 123.266 27.1406 123.547 28C123.844 28.8594 124.258 29.6016 124.789 30.2266C125.336 30.8516 125.992 31.3359 126.758 31.6797C127.539 32.0234 128.422 32.1953 129.406 32.1953C130.625 32.1953 131.758 31.9609 132.805 31.4922C133.867 31.0078 134.781 30.2812 135.547 29.3125L138.828 32.875C138.297 33.6406 137.57 34.375 136.648 35.0781C135.742 35.7812 134.648 36.3594 133.367 36.8125C132.086 37.25 130.625 37.4688 128.984 37.4688Z" fill="black"/>
<path d="M105.945 11.6406H112.062V36.1562C112.062 38.4688 111.547 40.4297 110.516 42.0391C109.5 43.6641 108.078 44.8906 106.25 45.7188C104.422 46.5625 102.297 46.9844 99.875 46.9844C98.8125 46.9844 97.6875 46.8438 96.5 46.5625C95.3281 46.2812 94.2031 45.8438 93.125 45.25C92.0625 44.6562 91.1719 43.9062 90.4531 43L93.4297 39.0156C94.2109 39.9219 95.1172 40.625 96.1484 41.125C97.1797 41.6406 98.3203 41.8984 99.5703 41.8984C100.789 41.8984 101.82 41.6719 102.664 41.2188C103.508 40.7812 104.156 40.1328 104.609 39.2734C105.062 38.4297 105.289 37.4062 105.289 36.2031V17.5L105.945 11.6406ZM88.8828 24.625V24.1328C88.8828 22.1953 89.1172 20.4375 89.5859 18.8594C90.0703 17.2656 90.75 15.8984 91.625 14.7578C92.5156 13.6172 93.5938 12.7344 94.8594 12.1094C96.125 11.4844 97.5547 11.1719 99.1484 11.1719C100.836 11.1719 102.25 11.4844 103.391 12.1094C104.531 12.7344 105.469 13.625 106.203 14.7812C106.938 15.9219 107.508 17.2734 107.914 18.8359C108.336 20.3828 108.664 22.0781 108.898 23.9219V25C108.664 26.7656 108.312 28.4062 107.844 29.9219C107.375 31.4375 106.758 32.7656 105.992 33.9062C105.227 35.0312 104.273 35.9062 103.133 36.5312C102.008 37.1562 100.664 37.4688 99.1016 37.4688C97.5391 37.4688 96.125 37.1484 94.8594 36.5078C93.6094 35.8672 92.5391 34.9688 91.6484 33.8125C90.7578 32.6562 90.0703 31.2969 89.5859 29.7344C89.1172 28.1719 88.8828 26.4688 88.8828 24.625ZM95.6328 24.1328V24.625C95.6328 25.6719 95.7344 26.6484 95.9375 27.5547C96.1406 28.4609 96.4531 29.2656 96.875 29.9688C97.3125 30.6562 97.8516 31.1953 98.4922 31.5859C99.1484 31.9609 99.9219 32.1484 100.812 32.1484C102.047 32.1484 103.055 31.8906 103.836 31.375C104.617 30.8438 105.203 30.1172 105.594 29.1953C105.984 28.2734 106.211 27.2109 106.273 26.0078V22.9375C106.242 21.9531 106.109 21.0703 105.875 20.2891C105.641 19.4922 105.312 18.8125 104.891 18.25C104.469 17.6875 103.922 17.25 103.25 16.9375C102.578 16.625 101.781 16.4688 100.859 16.4688C99.9688 16.4688 99.1953 16.6719 98.5391 17.0781C97.8984 17.4688 97.3594 18.0078 96.9219 18.6953C96.5 19.3828 96.1797 20.1953 95.9609 21.1328C95.7422 22.0547 95.6328 23.0547 95.6328 24.1328Z" fill="black"/>
<path d="M79.5312 17.1719V37H72.7812V11.6406H79.1328L79.5312 17.1719ZM87.1719 11.4766L87.0547 17.7344C86.7266 17.6875 86.3281 17.6484 85.8594 17.6172C85.4062 17.5703 84.9922 17.5469 84.6172 17.5469C83.6641 17.5469 82.8359 17.6719 82.1328 17.9219C81.4453 18.1562 80.8672 18.5078 80.3984 18.9766C79.9453 19.4453 79.6016 20.0156 79.3672 20.6875C79.1484 21.3594 79.0234 22.125 78.9922 22.9844L77.6328 22.5625C77.6328 20.9219 77.7969 19.4141 78.125 18.0391C78.4531 16.6484 78.9297 15.4375 79.5547 14.4062C80.1953 13.375 80.9766 12.5781 81.8984 12.0156C82.8203 11.4531 83.875 11.1719 85.0625 11.1719C85.4375 11.1719 85.8203 11.2031 86.2109 11.2656C86.6016 11.3125 86.9219 11.3828 87.1719 11.4766Z" fill="black"/>
<path d="M60.875 30.9297V11.6406H67.625V37H61.2734L60.875 30.9297ZM61.625 25.7266L63.6172 25.6797C63.6172 27.3672 63.4219 28.9375 63.0312 30.3906C62.6406 31.8281 62.0547 33.0781 61.2734 34.1406C60.4922 35.1875 59.5078 36.0078 58.3203 36.6016C57.1328 37.1797 55.7344 37.4688 54.125 37.4688C52.8906 37.4688 51.75 37.2969 50.7031 36.9531C49.6719 36.5938 48.7812 36.0391 48.0312 35.2891C47.2969 34.5234 46.7188 33.5469 46.2969 32.3594C45.8906 31.1562 45.6875 29.7109 45.6875 28.0234V11.6406H52.4375V28.0703C52.4375 28.8203 52.5234 29.4531 52.6953 29.9688C52.8828 30.4844 53.1406 30.9062 53.4688 31.2344C53.7969 31.5625 54.1797 31.7969 54.6172 31.9375C55.0703 32.0781 55.5703 32.1484 56.1172 32.1484C57.5078 32.1484 58.6016 31.8672 59.3984 31.3047C60.2109 30.7422 60.7812 29.9766 61.1094 29.0078C61.4531 28.0234 61.625 26.9297 61.625 25.7266Z" fill="black"/>
<path d="M40.2969 1V37H33.5234V1H40.2969Z" fill="black"/>
<path d="M27.9219 19.1641V32.6875C27.3906 33.3281 26.5703 34.0234 25.4609 34.7734C24.3516 35.5078 22.9219 36.1406 21.1719 36.6719C19.4219 37.2031 17.3047 37.4688 14.8203 37.4688C12.6172 37.4688 10.6094 37.1094 8.79688 36.3906C6.98438 35.6562 5.42188 34.5859 4.10938 33.1797C2.8125 31.7734 1.8125 30.0547 1.10938 28.0234C0.40625 25.9766 0.0546875 23.6406 0.0546875 21.0156V18.8828C0.0546875 16.2578 0.390625 13.9219 1.0625 11.875C1.75 9.82812 2.72656 8.10156 3.99219 6.69531C5.25781 5.28906 6.76562 4.21875 8.51562 3.48438C10.2656 2.75 12.2109 2.38281 14.3516 2.38281C17.3203 2.38281 19.7578 2.86719 21.6641 3.83594C23.5703 4.78906 25.0234 6.11719 26.0234 7.82031C27.0391 9.50781 27.6641 11.4453 27.8984 13.6328H21.0781C20.9062 12.4766 20.5781 11.4688 20.0938 10.6094C19.6094 9.75 18.9141 9.07812 18.0078 8.59375C17.1172 8.10938 15.9609 7.86719 14.5391 7.86719C13.3672 7.86719 12.3203 8.10938 11.3984 8.59375C10.4922 9.0625 9.72656 9.75781 9.10156 10.6797C8.47656 11.6016 8 12.7422 7.67188 14.1016C7.34375 15.4609 7.17969 17.0391 7.17969 18.8359V21.0156C7.17969 22.7969 7.35156 24.375 7.69531 25.75C8.03906 27.1094 8.54688 28.2578 9.21875 29.1953C9.90625 30.1172 10.75 30.8125 11.75 31.2812C12.75 31.75 13.9141 31.9844 15.2422 31.9844C16.3516 31.9844 17.2734 31.8906 18.0078 31.7031C18.7578 31.5156 19.3594 31.2891 19.8125 31.0234C20.2812 30.7422 20.6406 30.4766 20.8906 30.2266V24.1797H14.4688V19.1641H27.9219Z" fill="black"/>
</svg>
