<svg width="150" height="150" viewBox="0 0 150 150" fill="none" xmlns="http://www.w3.org/2000/svg">
<path fill-rule="evenodd" clip-rule="evenodd" d="M123.642 24.489C125.821 23.9728 127.339 23.4652 128.584 22.9322C130.327 22.185 131.773 21.29 134.057 19.7827C135.977 18.5159 138.437 18.4056 140.462 19.4955C142.487 20.5854 143.75 22.6994 143.75 24.9991C143.75 31.7549 142.908 37.292 140.959 42.165C139.319 46.2638 137.016 49.5929 134.26 52.623C133.096 73.6425 127.012 90.1494 117.71 102.655C108.069 115.617 95.2412 123.917 81.7194 128.566C68.2369 133.201 53.9914 134.236 41.2294 132.667C28.551 131.108 16.8315 126.911 8.6628 120.557C6.4258 118.817 5.63945 115.79 6.74693 113.181C7.85443 110.572 10.5785 109.036 13.384 109.437C21.4213 110.585 29.1581 108.757 35.52 106.145C34.2676 105.464 33.0868 104.726 31.9892 103.966C26.1922 99.9531 21.515 94.505 19.4098 90.2944C18.5386 88.5525 18.5296 86.5031 19.3855 84.7537C19.827 83.8506 20.4726 83.0812 21.2565 82.4944C12.7923 75.5087 9.37493 65.8469 9.37493 59.3741C9.37493 57.4495 10.2617 55.6322 11.7787 54.4478C12.4166 53.9498 13.1359 53.587 13.8942 53.3685C13.2609 51.5139 12.7694 49.64 12.3947 47.826C10.7337 39.7831 10.8811 30.7052 12.6866 23.4833C13.3044 21.0119 15.3602 19.1629 17.8831 18.8095C20.4058 18.4562 22.8906 19.6693 24.1636 21.8759C30.8981 33.5489 43.3197 40.6839 54.8804 44.9105C60.3156 46.8976 65.3494 48.1639 69.1225 48.9424C69.9369 41.3137 72.0669 35.0225 75.3362 30.0257C79.6494 23.4332 85.665 19.5328 92.125 17.7936C103.267 14.7942 115.63 18.2114 123.642 24.489ZM67.1775 61.3028C62.8956 60.4429 57.0107 58.9985 50.5882 56.6505C42.1056 53.5493 32.2555 48.7136 24.0045 41.2232C24.1522 42.6015 24.3618 43.9682 24.6364 45.2979C26.0192 51.9937 28.5887 55.7437 30.9201 56.9093C33.7714 58.335 35.0927 61.6781 33.9867 64.6681C32.4892 68.7162 28.5506 69.0481 24.9719 68.1537C27.8502 72.4687 33.0236 76.7712 41.6524 78.2094C44.6286 78.7056 46.8255 81.2569 46.8741 84.2737C46.9228 87.2906 44.8093 89.9112 41.8507 90.5031L36.4103 91.5912C37.2426 92.3144 38.1437 93.0237 39.1044 93.6887C43.4601 96.7044 47.8335 98.005 51.6091 97.0612C54.4369 96.3544 57.3779 97.6956 58.6977 100.295C60.0174 102.894 59.3654 106.06 57.1261 107.926C53.1016 111.276 48.4016 113.964 43.6911 116.194C41.4797 117.242 39.0084 118.276 36.3244 119.186C38.3886 119.626 40.5366 119.987 42.7549 120.261C53.821 121.621 66.1381 120.704 77.6556 116.745C89.1337 112.799 99.7431 105.866 107.681 95.195C115.606 84.5387 121.137 69.7919 121.879 49.7682C121.937 48.1917 122.59 46.6955 123.706 45.58C126.516 42.7697 128.838 39.5485 129.981 35.7144C127.981 36.3377 125.73 36.8772 123.049 37.3898C121.014 37.7787 118.92 37.1347 117.456 35.6704C112.677 30.8921 103.227 27.7499 95.3744 29.8639C91.6787 30.8588 88.3194 33.0127 85.7962 36.8691C83.2206 40.8065 81.25 46.9403 81.25 56.2494C81.25 58.018 80.5006 59.7037 79.1881 60.8888C76.0756 63.6981 70.8375 62.0377 67.1775 61.3028Z" fill="black"/>
</svg>
