<svg width="150" height="150" viewBox="0 0 150 150" fill="none" xmlns="http://www.w3.org/2000/svg">
<g clip-path="url(#clip0_30_13)">
<path fill-rule="evenodd" clip-rule="evenodd" d="M59.3509 44.5735C57.4165 43.4681 55.0399 43.476 53.1129 44.5943C51.186 45.7125 50 47.7721 50 50V100C50 102.228 51.186 104.287 53.1129 105.406C55.0399 106.524 57.4165 106.532 59.3509 105.426L103.101 80.4262C105.048 79.3137 106.25 77.2431 106.25 75C106.25 72.7569 105.048 70.6862 103.101 69.5737L59.3509 44.5735ZM87.4025 75L62.5 89.23V60.7699L87.4025 75Z" fill="black"/>
<path fill-rule="evenodd" clip-rule="evenodd" d="M0 75C0 51.5642 0 39.8462 5.96822 31.6317C7.89569 28.9787 10.2287 26.6457 12.8817 24.7182C21.0962 18.75 32.8142 18.75 56.25 18.75H93.75C117.186 18.75 128.904 18.75 137.118 24.7182C139.771 26.6457 142.104 28.9787 144.032 31.6317C150 39.8462 150 51.5642 150 75C150 98.4356 150 110.154 144.032 118.368C142.104 121.021 139.771 123.354 137.118 125.282C128.904 131.25 117.186 131.25 93.75 131.25H56.25C32.8142 131.25 21.0962 131.25 12.8817 125.282C10.2287 123.354 7.89569 121.021 5.96822 118.368C0 110.154 0 98.4356 0 75ZM56.25 31.25H93.75C105.746 31.25 113.739 31.2672 119.796 31.9233C125.618 32.5541 128.15 33.653 129.771 34.8309C131.362 35.9874 132.762 37.3872 133.919 38.979C135.097 40.6003 136.196 43.1321 136.827 48.9543C137.483 55.0104 137.5 63.0038 137.5 75C137.5 86.9962 137.483 94.9894 136.827 101.046C136.196 106.868 135.097 109.4 133.919 111.021C132.762 112.612 131.362 114.012 129.771 115.169C128.15 116.347 125.618 117.446 119.796 118.077C113.739 118.733 105.746 118.75 93.75 118.75H56.25C44.2536 118.75 36.2604 118.733 30.2043 118.077C24.3821 117.446 21.8503 116.347 20.229 115.169C18.6372 114.012 17.2374 112.612 16.0809 111.021C14.903 109.4 13.8041 106.868 13.1733 101.046C12.5172 94.9894 12.5 86.9962 12.5 75C12.5 63.0038 12.5172 55.0104 13.1733 48.9543C13.8041 43.1321 14.903 40.6003 16.0809 38.979C17.2374 37.3872 18.6372 35.9874 20.229 34.8309C21.8503 33.653 24.3821 32.5541 30.2043 31.9233C36.2604 31.2672 44.2536 31.25 56.25 31.25Z" fill="black"/>
</g>
<defs>
<clipPath id="clip0_30_13">
<rect width="150" height="150" fill="white"/>
</clipPath>
</defs>
</svg>
